<svg version="1"
  xmlns="http://www.w3.org/2000/svg" width="341.333" height="341.333" viewBox="0 0 256.000000 256.000000">
  <path d="M89.4 1.2c-.4.6-.9 5.9-1.1 11.7-.3 8.9-.7 15.6-1.2 20.5-.1.9-33.7.1-40.1-1-1.9-.3-5.4-.9-7.7-1.4l-4.3-.7v13.8c0 7.7.3 13.9.8 14 2.3.1 30.3.8 39.5.8L86 59l-.6 14.2c-.3 7.9-.7 14.8-.9 15.4-.2.6-3.6 2.7-7.7 4.6C53 104.6 34.2 126.9 28.1 151c-2.6 10.5-2.3 27.3.8 35.1 9.7 25 34.2 32.6 62.7 19.5 11.7-5.5 21.9-13.1 35.4-26.6 18.4-18.3 28.1-32 41.2-58.1 5.9-11.6 6-11.8 8.6-10.8 9.3 3.5 18.2 11.5 22 19.7 2.3 4.8 2.7 7.1 2.7 14.7s-.4 9.9-2.7 14.7c-8.8 19-37.8 33.1-69.5 33.7l-4.2.1 4.3 7.3c2.4 4.1 5.4 10.4 6.7 14.1l2.2 6.8 5.6-.6c20.4-2.3 38.7-8.2 54-17.4 4.4-2.6 11.1-8 15.7-12.7 9.4-9.4 14.5-18.6 17-30.7 1.5-7.2 2-19.9.9-24.8-.3-1.4-.7-3.9-1-5.5-.3-1.7-2.4-6.7-4.6-11.2-6.8-13.6-22.3-26.5-37-30.9-3.2-1-5.9-2.3-5.9-2.8.1-.6 1.4-4.5 3-8.5 1.6-4.1 2.8-7.5 2.7-7.6-2.1-1.1-27.1-7.4-27.7-7-.6.4-1 1.4-1 2.3 0 .9-.9 4.8-2.1 8.7l-2 7h-12.2c-11.4-.1-15 .2-27 2l-4.8.7.5-8.8c.2-4.9.5-10.3.5-12 .1-2.8.4-3.1 3.4-3.1 3.3 0 21.8-1.2 27.2-1.8 1.7-.1 6.6-.6 11-.9 4.4-.4 9.1-.9 10.5-1.1 1.4-.2 5.4-.7 9-1 3.6-.4 7.2-.9 8-1 1.8-.3 8.7-1.3 20-2.8l8.5-1.2-.2-6c-.1-3.3-.2-9.5-.3-13.8-.1-4.2-.6-7.9-1-8.2-.4-.2-2.2 0-4.1.5-4.1 1.2-20.7 4.6-26.9 5.6-2.5.3-5.3.8-6.4 1-1 .2-4.4.6-7.5.9-3.1.4-6.3.8-7.1 1-.8.2-5.1.7-9.5 1-4.4.4-9.6.8-11.5 1-1.9.2-7.4.7-12.2 1l-8.8.7v-2.9c.1-3.1 2.6-21.2 3.6-25.6.6-2.6.5-2.7-3.2-2.8-8.9-.1-23-.9-24.1-1.4-.7-.2-1.5.1-1.9.7zm57.4 103.5c-3.3 7.5-11.5 22.6-16.3 29.8-5.8 8.8-16.5 22.1-16.6 20.8 0-.4-.2-1.9-.4-3.3-.6-4.6-1.8-27.4-1.9-36.5l-.1-8.9 4.5-1.3c6.2-1.9 13.9-2.9 23.7-3.2l8.3-.2-1.2 2.8zm-61.2 21.5c.1 12.8 1.3 29.4 2.8 39.3 1.4 8.9 1.4 9-.7 10.9-1.2 1-5 3.2-8.5 4.9-5.3 2.5-7.2 2.9-11.9 2.5-4.7-.4-6.1-1-8.4-3.6-9.8-11-4.1-35.4 12-51 3.3-3.1 13.8-11.2 14.6-11.2 0 0 0 3.7.1 8.2zM11.5 224.7c-3.6.9-8.7 5.5-10.2 9.1-1.8 4.4-1.1 11.6 1.5 15.2 3.6 4.8 7.8 6.9 13.7 6.7 9.4-.4 15-6.3 15-15.7-.1-6.3-1.7-9.6-6.7-13.3-2.6-1.9-9.6-3-13.3-2zM66 225.1c-9.9 4.1-13 17.3-5.9 25.4 3.5 4 7 5.4 13.2 5.1 8.2-.3 14-6.4 14.4-15.1.2-5.9-1.9-10.1-6.7-13.7-3-2.2-11.5-3.2-15-1.7zM123.2 224.7c-1.2.2-4 2.1-6.1 4.1-6.7 6.4-6.8 15.7-.2 22.3 11.1 11.1 29.2 1.5 26.7-14.1-1.4-8.9-10.3-14.3-20.4-12.3zM177.5 225.4c-9.4 4.1-12.4 16.8-5.8 24.6 3.6 4.3 7.1 5.8 13 5.6 5.6-.1 9.1-2.1 12.7-7 2.9-3.9 2.9-13.3 0-17.3-4.8-6.5-13.1-8.9-19.9-5.9zM233.5 225.3c-8.8 4-12.2 16.2-6.7 23.6 3.7 4.9 6.9 6.6 13.2 6.6 9.7 0 15.4-5.7 15.5-15.5 0-6.2-1.6-9.5-6.6-13.2-3.3-2.5-11.5-3.2-15.4-1.5z"/>
</svg>