<svg version="1.1" xmlns="http://www.w3.org/2000/svg" viewBox="0 0 64 64">
  <style>
    svg {
      --background-color: #fff6e0;
      --text-color: #00241b;
      --highlight-color: #f76b5e;
    }

    @media (prefers-color-scheme: dark) {
      svg {
        --background-color: hsl(296, 25%, 12%);
        --text-color: hsl(326, 18%, 75%);
        --highlight-color: hsl(27, 100%, 43%);
      }
    }
  </style>

  <rect aria-label="Background" width="100%" height="100%" fill="var(--background-color)" rx="16" />

  <g>
    <g aria-label="ã‚" transform="translate(11, -10) scale(1.1)" fill="var(--text-color)">
      <path d="m 25.274414,24.901728 c -0.138,1.058 -0.414,2.024 -0.92,3.496 -0.828,-0.092 -1.196,-0.092 -1.748,-0.092 -2.806,0 -3.864,0.092 -6.348,0.598 0.046,-0.966 0.092,-2.438 0.23,-4.416 3.68,-0.092 11.132,-0.782 16.192,-1.61 0.966,-0.138 1.15,-0.138 1.794,-0.184 l -0.23,-5.29 c -3.542,1.104 -10.074,2.024 -17.434,2.438 0.276,-3.22 0.46,-4.416 0.828,-5.658 l -5.704,-0.276 c 0.092,0.368 0.092,0.552 0.092,0.736 0,0.874 -0.046,2.024 -0.092,2.622 -0.138,1.84 -0.138,1.84 -0.184,2.76 -0.92,0 -0.966,0 -1.012,0 -3.8179999,0 -6.5319999,-0.23 -8.6019999,-0.69 v 5.152 c 0.506,-0.046 0.92,-0.046 1.058,-0.046 0.092,0 0.414,0 0.874,0 4.462,0.138 6.9459999,0.184 7.4519999,0.184 -0.092,2.208 -0.184,4.048 -0.184,5.52 -2.7599999,1.196 -4.4619999,2.346 -6.3019999,4.14 -2.944,2.898 -4.55400004,6.532 -4.55400004,10.304 0,4.784 2.89800004,8.05 7.17600004,8.05 3.8179999,0 7.9119999,-2.254 12.0519999,-6.624 3.312,-3.45 5.474,-6.762 8.004,-12.236 3.266,1.104 5.152,3.45 5.152,6.348 0,3.174 -1.702,5.428 -5.382,7.176 -2.714,1.288 -5.06,1.794 -8.786,1.84 1.518,2.392 1.932,3.22 2.438,5.198 4.048,-0.414 6.67,-1.104 9.384,-2.438 5.198,-2.576 7.912,-6.486 7.912,-11.5 0,-3.634 -1.426,-6.486 -4.37,-8.694 -1.564,-1.15 -2.898,-1.794 -4.784,-2.254 0.138,-0.414 0.184,-0.46 0.644,-1.748 0.368,-0.966 0.368,-0.966 0.552,-1.334 z m -13.846,10.488 c 0,4.462 0.23,7.406 0.828,10.396 -1.472,1.196 -2.7139999,1.748 -4.0019999,1.748 -1.61,0 -2.622,-1.288 -2.622,-3.358 0,-1.932 0.69,-3.818 2.07,-5.612 0.92,-1.15 1.702,-1.84 3.7259999,-3.174 z m 5.198,6.946 c -0.046,-0.23 -0.046,-0.276 -0.046,-0.506 0,-0.322 0,-0.322 -0.046,-0.598 -0.276,-3.22 -0.276,-3.68 -0.322,-7.912 1.84,-0.598 3.496,-0.828 5.52,-0.828 0.46,0 0.69,0 1.196,0.046 -1.702,3.818 -3.542,6.762 -5.704,9.2 -0.322,0.368 -0.322,0.368 -0.506,0.644 z" />
    </g>

    <g aria-label="Dots" fill="var(--highlight-color)">
      <circle cx="10" cy="54" r="4" />
      <circle cx="21" cy="54" r="4" />
      <circle cx="32" cy="54" r="4" />
      <circle cx="43" cy="54" r="4" />
      <circle cx="54" cy="54" r="4" />
    </g>
  </g>
</svg>